# xmcd CD database file
#
# Track frame offsets:
#	150
#	13830
#	46627
#	65008
#	84628
#	106135
#	126746
#	154167
#	171098
#	192307
#
# Disc length: 2826 seconds
#
# Revision: 0
# Processed by: cddbd v1.5.2PL0 Copyright (c) Steve Scherf et al.
# Submitted via: CDex 1.70beta1
#
DISCID=850b080a
DTITLE=Buck Clayton wityh Humphrey Lyttleton -  Le Vrai - CD 1
DYEAR=1900
DGENRE=Jazz
TTITLE0=The Green Tiger
TTITLE1=Red Barrel Blues
TTITLE2=Unbooted Character
TTITLE3=Talk Of The Town
TTITLE4=The Wrestlers Tricks
TTITLE5=Blues In The Afternoon
TTITLE6=The Hucklebuck
TTITLE7=One Hour
TTITLE8=Carole's Caper
TTITLE9=You Can Depend On Me
EXTD=
EXTT0=
EXTT1=
EXTT2=
EXTT3=
EXTT4=
EXTT5=
EXTT6=
EXTT7=
EXTT8=
EXTT9=
PLAYORDER=
